<mxfile host="app.diagrams.net" modified="2022-04-09T08:30:41.280Z" agent="5.0 (Linux; Android 11; SM-T860) AppleWebKit/537.36 (KHTML, like Gecko) Chrome/99.0.4844.88 Safari/537.36" etag="gD6Wx0ciOwvVYfSAdSWR" version="17.4.1" type="github">
  <diagram id="oZ_LmyALEskMLcTEMpoX" name="Page-1">
    <mxGraphModel dx="640" dy="403" grid="1" gridSize="10" guides="1" tooltips="1" connect="1" arrows="1" fold="1" page="1" pageScale="1" pageWidth="827" pageHeight="1169" math="0" shadow="0">
      <root>
        <mxCell id="0" />
        <mxCell id="1" parent="0" />
        <mxCell id="D0ty6o7c1ZrVtUTrkf9R-1" value="" style="whiteSpace=wrap;html=1;aspect=fixed;fillColor=#fff2cc;strokeColor=#d6b656;" vertex="1" parent="1">
          <mxGeometry x="130" y="80" width="100" height="100" as="geometry" />
        </mxCell>
        <mxCell id="D0ty6o7c1ZrVtUTrkf9R-2" value="Actor" style="shape=umlActor;verticalLabelPosition=bottom;verticalAlign=top;html=1;outlineConnect=0;fillColor=#dae8fc;strokeColor=#6c8ebf;" vertex="1" parent="1">
          <mxGeometry x="260" y="110" width="30" height="60" as="geometry" />
        </mxCell>
        <mxCell id="D0ty6o7c1ZrVtUTrkf9R-3" value="" style="curved=1;endArrow=classic;html=1;rounded=0;exitX=0.5;exitY=1;exitDx=0;exitDy=0;entryX=1;entryY=0.3333333333333333;entryDx=0;entryDy=0;entryPerimeter=0;" edge="1" parent="1" source="D0ty6o7c1ZrVtUTrkf9R-1" target="D0ty6o7c1ZrVtUTrkf9R-2">
          <mxGeometry width="50" height="50" relative="1" as="geometry">
            <mxPoint x="300" y="230" as="sourcePoint" />
            <mxPoint x="350" y="180" as="targetPoint" />
            <Array as="points">
              <mxPoint x="350" y="230" />
              <mxPoint x="300" y="180" />
            </Array>
          </mxGeometry>
        </mxCell>
      </root>
    </mxGraphModel>
  </diagram>
</mxfile>
